<svg width="164" height="25" viewBox="0 0 164 25" fill="none" xmlns="http://www.w3.org/2000/svg">
<path d="M11.6529 3.00078C11.9522 2.07947 13.2556 2.07947 13.555 3.00078L15.1519 7.91572C15.2858 8.32775 15.6698 8.60671 16.103 8.60671H21.2709C22.2396 8.60671 22.6424 9.84632 21.8587 10.4157L17.6778 13.4533C17.3273 13.708 17.1806 14.1593 17.3145 14.5714L18.9115 19.4863C19.2108 20.4076 18.1563 21.1737 17.3726 20.6043L13.1917 17.5667C12.8412 17.3121 12.3666 17.3121 12.0161 17.5667L7.83524 20.6043C7.05152 21.1737 5.99704 20.4076 6.2964 19.4863L7.89336 14.5714C8.02723 14.1593 7.88057 13.708 7.53009 13.4533L3.34919 10.4157C2.56547 9.84632 2.96825 8.60671 3.93697 8.60671H9.10485C9.53808 8.60671 9.92203 8.32775 10.0559 7.91572L11.6529 3.00078Z" fill="#FF8A00"/>
<path d="M46.3509 3.00078C46.6502 2.07947 47.9536 2.07947 48.253 3.00078L49.8499 7.91572C49.9838 8.32775 50.3678 8.60671 50.801 8.60671H55.9689C56.9376 8.60671 57.3404 9.84632 56.5567 10.4157L52.3758 13.4533C52.0253 13.708 51.8786 14.1593 52.0125 14.5714L53.6094 19.4863C53.9088 20.4076 52.8543 21.1737 52.0706 20.6043L47.8897 17.5667C47.5392 17.3121 47.0646 17.3121 46.7141 17.5667L42.5332 20.6043C41.7495 21.1737 40.695 20.4076 40.9944 19.4863L42.5914 14.5714C42.7252 14.1593 42.5786 13.708 42.2281 13.4533L38.0472 10.4157C37.2635 9.84632 37.6662 8.60671 38.635 8.60671H43.8028C44.2361 8.60671 44.62 8.32775 44.7539 7.91572L46.3509 3.00078Z" fill="#FF8A00"/>
<path d="M81.0491 3.00078C81.3485 2.07947 82.6519 2.07947 82.9512 3.00078L84.5482 7.91572C84.6821 8.32775 85.066 8.60671 85.4992 8.60671H90.6671C91.6358 8.60671 92.0386 9.84632 91.2549 10.4157L87.074 13.4533C86.7235 13.708 86.5769 14.1593 86.7107 14.5714L88.3077 19.4863C88.607 20.4076 87.5526 21.1737 86.7688 20.6043L82.5879 17.5667C82.2375 17.3121 81.7629 17.3121 81.4124 17.5667L77.2315 20.6043C76.4478 21.1737 75.3933 20.4076 75.6926 19.4863L77.2896 14.5714C77.4235 14.1593 77.2768 13.708 76.9263 13.4533L72.7454 10.4157C71.9617 9.84632 72.3645 8.60671 73.3332 8.60671H78.5011C78.9343 8.60671 79.3183 8.32775 79.4521 7.91572L81.0491 3.00078Z" fill="#FF8A00"/>
<path d="M115.747 3.00078C116.046 2.07947 117.35 2.07947 117.649 3.00078L119.246 7.91572C119.38 8.32775 119.764 8.60671 120.197 8.60671H125.365C126.334 8.60671 126.737 9.84632 125.953 10.4157L121.772 13.4533C121.422 13.708 121.275 14.1593 121.409 14.5714L123.006 19.4863C123.305 20.4076 122.251 21.1737 121.467 20.6043L117.286 17.5667C116.935 17.3121 116.461 17.3121 116.11 17.5667L111.929 20.6043C111.146 21.1737 110.091 20.4076 110.391 19.4863L111.988 14.5714C112.121 14.1593 111.975 13.708 111.624 13.4533L107.443 10.4157C106.66 9.84632 107.062 8.60671 108.031 8.60671H113.199C113.632 8.60671 114.016 8.32775 114.15 7.91572L115.747 3.00078Z" fill="#FF8A00"/>
<path d="M150.398 3.00078C150.697 2.07947 152.001 2.07947 152.3 3.00078L153.897 7.91572C154.031 8.32775 154.415 8.60671 154.848 8.60671H160.016C160.985 8.60671 161.387 9.84632 160.604 10.4157L156.423 13.4533C156.072 13.708 155.926 14.1593 156.06 14.5714L157.657 19.4863C157.956 20.4076 156.901 21.1737 156.118 20.6043L151.937 17.5667C151.586 17.3121 151.112 17.3121 150.761 17.5667L146.58 20.6043C145.797 21.1737 144.742 20.4076 145.042 19.4863L146.638 14.5714C146.772 14.1593 146.626 13.708 146.275 13.4533L142.094 10.4157C141.311 9.84632 141.713 8.60671 142.682 8.60671H147.85C148.283 8.60671 148.667 8.32775 148.801 7.91572L150.398 3.00078Z" fill="#FF8A00"/>
</svg>
